<?xml version="1.0" encoding="UTF-8"?>
<svg id="Layer_2" data-name="Layer 2" xmlns="http://www.w3.org/2000/svg" viewBox="0 0 65 65">
  <defs>
    <style>
      .cls-1 {
        fill: #ed1c24;
      }

      .cls-2 {
        fill: #231f20;
      }
    </style>
  </defs>
  <g id="Layer_1-2" data-name="Layer 1">
    <g>
      <circle class="cls-2" cx="32.5" cy="2.5" r="2.5"/>
      <circle class="cls-2" cx="62.5" cy="32.5" r="2.5"/>
      <circle class="cls-2" cx="32.5" cy="62.5" r="2.5"/>
      <circle class="cls-2" cx="2.5" cy="32.5" r="2.5"/>
      <circle class="cls-2" cx="46.81" cy="46.81" r=".87"/>
      <circle class="cls-2" cx="18.19" cy="46.81" r=".87"/>
      <circle class="cls-2" cx="18.19" cy="18.19" r=".88"/>
      <circle class="cls-2" cx="46.81" cy="18.19" r=".88"/>
      <circle class="cls-2" cx="32.5" cy="32.5" r="1.13"/>
    </g>
    <path class="cls-1" d="m5.01,39.25c21.23,0,21.27-.54,21.27,20.15l2.66-2.72s1.1,1.04.5,1.87c-.85,1.18-4.08,3.95-4.08,3.95,0,0-3.38-3.01-4.07-3.95-.6-.82.48-1.87.48-1.87l2.56,2.72c0-19.11.84-18.08-19.29-18.08-1.51,0-1.51-2.07-.03-2.07Z"/>
    <circle class="cls-2" cx="32.5" cy="46.81" r=".45"/>
    <circle class="cls-2" cx="18.19" cy="32.5" r=".45"/>
    <circle class="cls-2" cx="32.5" cy="18.19" r=".45"/>
    <circle class="cls-2" cx="46.81" cy="32.5" r=".45"/>
  </g>
</svg>