<?xml version="1.0" encoding="UTF-8"?>
<svg id="Layer_2" data-name="Layer 2" xmlns="http://www.w3.org/2000/svg" viewBox="0 0 65 65">
  <defs>
    <style>
      .cls-1 {
        fill: #ed1c24;
      }

      .cls-2 {
        fill: #231f20;
      }
    </style>
  </defs>
  <g id="Layer_1-2" data-name="Layer 1">
    <g>
      <circle class="cls-2" cx="62.5" cy="32.5" r="2.5"/>
      <circle class="cls-2" cx="32.5" cy="62.5" r="2.5"/>
      <circle class="cls-2" cx="2.5" cy="32.5" r="2.5"/>
      <circle class="cls-2" cx="32.5" cy="2.5" r="2.5"/>
      <circle class="cls-2" cx="18.19" cy="46.81" r=".87"/>
      <circle class="cls-2" cx="18.19" cy="18.19" r=".87"/>
      <circle class="cls-2" cx="46.81" cy="18.19" r=".88"/>
      <circle class="cls-2" cx="46.81" cy="46.81" r=".88"/>
      <circle class="cls-2" cx="32.5" cy="32.5" r="1.12"/>
    </g>
    <path class="cls-1" d="m25.75,5.01c0,21.23.54,21.27-20.15,21.27l2.72,2.66s-1.04,1.1-1.87.5c-1.18-.85-3.95-4.08-3.95-4.08,0,0,3.01-3.38,3.95-4.07.82-.6,1.87.48,1.87.48l-2.72,2.56c19.11,0,18.08.84,18.08-19.29,0-1.51,2.07-1.51,2.07-.03Z"/>
    <circle class="cls-2" cx="18.19" cy="32.5" r=".45"/>
    <circle class="cls-2" cx="32.5" cy="18.19" r=".45"/>
    <circle class="cls-2" cx="46.81" cy="32.5" r=".45"/>
    <circle class="cls-2" cx="32.5" cy="46.81" r=".45"/>
  </g>
</svg>