<?xml version="1.0" encoding="UTF-8"?>
<svg id="Layer_2" data-name="Layer 2" xmlns="http://www.w3.org/2000/svg" viewBox="0 0 65 65">
  <defs>
    <style>
      .cls-1 {
        fill: #231f20;
      }
    </style>
  </defs>
  <g id="Layer_1-2" data-name="Layer 1">
    <g>
      <path class="cls-1" d="m18.19,32.95c.58,0,.58-.9,0-.9s-.58.9,0,.9h0Z"/>
      <path class="cls-1" d="m32.5,47.26c.58,0,.58-.9,0-.9s-.58.9,0,.9h0Z"/>
      <path class="cls-1" d="m46.81,32.95c.58,0,.58-.9,0-.9s-.58.9,0,.9h0Z"/>
      <path class="cls-1" d="m32.5,18.64c.58,0,.58-.9,0-.9s-.58.9,0,.9h0Z"/>
      <circle class="cls-1" cx="32.5" cy="2.5" r="2.5"/>
      <circle class="cls-1" cx="62.5" cy="32.5" r="2.5"/>
      <circle class="cls-1" cx="32.5" cy="62.5" r="2.5"/>
      <circle class="cls-1" cx="2.5" cy="32.5" r="2.5"/>
      <circle class="cls-1" cx="46.81" cy="46.81" r=".87"/>
      <circle class="cls-1" cx="18.19" cy="46.81" r=".87"/>
      <circle class="cls-1" cx="18.19" cy="18.19" r=".87"/>
      <circle class="cls-1" cx="46.81" cy="18.19" r=".87"/>
      <circle class="cls-1" cx="32.5" cy="32.5" r="1.12"/>
    </g>
  </g>
</svg>

